<?xml version="1.0" encoding="UTF-8" standalone="no"?>
<!-- Created with Inkscape (http://www.inkscape.org/) -->

<svg
   xmlns:dc="http://purl.org/dc/elements/1.1/"
   xmlns:cc="http://creativecommons.org/ns#"
   xmlns:rdf="http://www.w3.org/1999/02/22-rdf-syntax-ns#"
   xmlns:svg="http://www.w3.org/2000/svg"
   xmlns="http://www.w3.org/2000/svg"
   xmlns:sodipodi="http://sodipodi.sourceforge.net/DTD/sodipodi-0.dtd"
   xmlns:inkscape="http://www.inkscape.org/namespaces/inkscape"
   width="199.7626"
   height="199.76274"
   viewBox="0 0 52.853859 52.853892"
   version="1.1"
   id="svg8"
   sodipodi:docname="clock.svg"
   inkscape:version="0.92.1 r">
  <defs
     id="defs2" />
  <sodipodi:namedview
     id="base"
     pagecolor="#ebebeb"
     bordercolor="#666666"
     borderopacity="1.0"
     inkscape:pageopacity="0"
     inkscape:pageshadow="2"
     inkscape:zoom="0.24748737"
     inkscape:cx="781.67911"
     inkscape:cy="357.52202"
     inkscape:document-units="px"
     inkscape:current-layer="layer1"
     showgrid="false"
     units="px"
     inkscape:pagecheckerboard="false"
     inkscape:window-width="1920"
     inkscape:window-height="1053"
     inkscape:window-x="0"
     inkscape:window-y="27"
     inkscape:window-maximized="1"
     fit-margin-top="0"
     fit-margin-left="0"
     fit-margin-right="0"
     fit-margin-bottom="0" />
  <metadata
     id="metadata5">
    <rdf:RDF>
      <cc:Work
         rdf:about="">
        <dc:format>image/svg+xml</dc:format>
        <dc:type
           rdf:resource="http://purl.org/dc/dcmitype/StillImage" />
        <dc:title></dc:title>
      </cc:Work>
    </rdf:RDF>
  </metadata>
  <g
     inkscape:label="Tavolo 1"
     inkscape:groupmode="layer"
     id="layer1"
     transform="translate(333.82818,-422.12541)">
    <g
       transform="matrix(3.529895,0,0,3.529895,-333.87615,422.07814)"
       id="g21473"
       style="fill:#ffffff;stroke-width:0.11407144">
      <g
         id="g21451"
         inkscape:label="status"
         style="display:inline;fill:#ffffff;stroke-width:0.11407144"
         transform="translate(-223,-649)" />
      <g
         id="g21453"
         inkscape:label="devices"
         transform="translate(-223,-649)"
         style="fill:#ffffff;stroke-width:0.11407144" />
      <g
         id="g21459"
         inkscape:label="apps"
         transform="translate(-223,-649)"
         style="fill:#ffffff;stroke-width:0.11407144">
        <path
           inkscape:connector-curvature="0"
           d="m 230.5002,649.01339 c -4.13029,0 -7.48661,3.35631 -7.48661,7.48661 0,4.13029 3.35632,7.48661 7.48661,7.48661 4.13029,0 7.4866,-3.35632 7.4866,-7.48661 0,-4.1303 -3.35631,-7.48661 -7.4866,-7.48661 z m 0,1.97322 c 3.04941,0 5.51339,2.46398 5.51339,5.51339 0,3.04941 -2.46398,5.51339 -5.51339,5.51339 -3.04941,0 -5.5134,-2.46398 -5.5134,-5.51339 0,-3.04941 2.46399,-5.51339 5.5134,-5.51339 z"
           id="path21455"
           style="color:#000000;font-style:normal;font-variant:normal;font-weight:normal;font-stretch:normal;font-size:medium;line-height:normal;font-family:Sans;-inkscape-font-specification:Sans;text-indent:0;text-align:start;text-decoration:none;text-decoration-line:none;letter-spacing:normal;word-spacing:normal;text-transform:none;writing-mode:lr-tb;direction:ltr;baseline-shift:baseline;text-anchor:start;display:inline;overflow:visible;visibility:visible;fill:#00faab;fill-opacity:1;stroke:none;stroke-width:0.24569236;marker:none;enable-background:new" />
        <path
           inkscape:connector-curvature="0"
           d="m 227.3125,652.96875 a 0.50005,0.50005 0 0 0 -0.21875,0.84375 l 3.09375,3.0625 a 0.50005,0.50005 0 0 0 0.0625,0.0312 0.50005,0.50005 0 0 0 0.0625,0.0312 0.50005,0.50005 0 0 0 0.0625,0.0312 0.50005,0.50005 0 0 0 0.0312,0 0.50005,0.50005 0 0 0 0.0625,0.0312 0.50005,0.50005 0 0 0 0.0937,0 h 0.15625 2.78125 a 0.50005,0.50005 0 1 0 0,-1 h -2.75 l -2.96875,-2.875 a 0.50005,0.50005 0 0 0 -0.46875,-0.15625 z"
           id="path21457"
           style="color:#000000;font-style:normal;font-variant:normal;font-weight:normal;font-stretch:normal;font-size:medium;line-height:normal;font-family:Sans;-inkscape-font-specification:Sans;text-indent:0;text-align:start;text-decoration:none;text-decoration-line:none;letter-spacing:normal;word-spacing:normal;text-transform:none;writing-mode:lr-tb;direction:ltr;baseline-shift:baseline;text-anchor:start;display:inline;overflow:visible;visibility:visible;fill:#ffffff;fill-opacity:1;stroke:none;stroke-width:0.11407144;marker:none;enable-background:new" />
      </g>
      <g
         id="g21461"
         inkscape:label="places"
         transform="translate(-223,-649)"
         style="fill:#ffffff;stroke-width:0.11407144" />
      <g
         id="g21463"
         inkscape:label="mimetypes"
         transform="translate(-223,-649)"
         style="fill:#ffffff;stroke-width:0.11407144" />
      <g
         id="g21465"
         inkscape:label="emblems"
         style="display:inline;fill:#ffffff;stroke-width:0.11407144"
         transform="translate(-223,-649)" />
      <g
         id="g21467"
         inkscape:label="emotes"
         style="display:inline;fill:#ffffff;stroke-width:0.11407144"
         transform="translate(-223,-649)" />
      <g
         id="g21469"
         inkscape:label="categories"
         style="display:inline;fill:#ffffff;stroke-width:0.11407144"
         transform="translate(-223,-649)" />
      <g
         id="g21471"
         inkscape:label="actions"
         style="display:inline;fill:#ffffff;stroke-width:0.11407144"
         transform="translate(-223,-649)" />
    </g>
  </g>
</svg>
